<svg xmlns="http://www.w3.org/2000/svg" width="39.997" height="40" viewBox="0 0 39.997 40">
  <path id="_" data-name="" d="M708.052,602a20.005,20.005,0,1,1-5.859-14.14A19.267,19.267,0,0,1,708.052,602Zm-1.641,0a18.271,18.271,0,1,0-5.351,13.008A17.712,17.712,0,0,0,706.411,602Zm-20.9-2.5a16.609,16.609,0,0,0,3.906,1.758,11.5,11.5,0,0,1,3.945,2.148,4.9,4.9,0,0,1,1.875,3.75,4.987,4.987,0,0,1-1.562,3.711,7.1,7.1,0,0,1-4.3,1.836v2.657h-1.8v-2.891q-4.218-.156-6.328-2.5l1.328-1.485.625.547a7.522,7.522,0,0,0,2.148,1.212,7.94,7.94,0,0,0,3.008.586,5.215,5.215,0,0,0,3.242-.976,3.042,3.042,0,0,0,1.289-2.539,3.415,3.415,0,0,0-1.758-2.89,14.115,14.115,0,0,0-3.906-1.8,10.857,10.857,0,0,1-3.906-2.07A4.436,4.436,0,0,1,681.57,597a4.955,4.955,0,0,1,1.641-3.632,6.616,6.616,0,0,1,4.14-1.836v-2.89h1.875v2.89a7.728,7.728,0,0,1,5.312,1.953l-1.172,1.719-.625-.469a7.788,7.788,0,0,0-1.875-.938,7.082,7.082,0,0,0-2.5-.469,5.208,5.208,0,0,0-3.32,1.016,3.077,3.077,0,0,0-1.289,2.5A3.135,3.135,0,0,0,685.515,599.5Z" transform="translate(-668.055 -581.999)" fill="#38c695"/>
</svg>
