<svg xmlns="http://www.w3.org/2000/svg" width="39.834" height="40" viewBox="0 0 39.834 40">
  <path id="_" data-name="" d="M941.648,602a18.234,18.234,0,1,0,5.329-13.008A17.74,17.74,0,0,0,941.648,602Zm38.2,0a19.964,19.964,0,1,1-5.835-14.14A19.307,19.307,0,0,1,979.849,602Zm-7.625-7.656-1.323-1.328-10.97,11.173-7.625-7.812-1.323,1.328,8.947,8.828Zm-12.293-8.672A1.327,1.327,0,1,0,961.254,587a1.331,1.331,0,0,0-1.323-1.328Zm0,30a1.328,1.328,0,1,0,.934,2.265,1.328,1.328,0,0,0-.934-2.265Zm-14.938-15A1.327,1.327,0,1,0,946.316,602a1.331,1.331,0,0,0-1.323-1.328Zm29.876,0A1.327,1.327,0,1,0,976.192,602a1.331,1.331,0,0,0-1.323-1.328Z" transform="translate(-940.014 -581.999)" fill="#b27cf5"/>
</svg>
