<svg xmlns="http://www.w3.org/2000/svg" width="39.737" height="39.952" viewBox="0 0 39.737 39.952">
  <path id="_" data-name="" d="M1234.206,601.976a19.293,19.293,0,0,1-5.83,14.114,19.743,19.743,0,0,1-28.077,0,20,20,0,0,1,0-28.229,19.743,19.743,0,0,1,28.077,0A19.3,19.3,0,0,1,1234.206,601.976Zm-1.586,0a17.758,17.758,0,0,0-5.364-12.99,18.174,18.174,0,0,0-25.839,0,18.41,18.41,0,0,0,0,25.978,18.174,18.174,0,0,0,25.839,0A17.755,17.755,0,0,0,1232.62,601.976ZM1226,594.847a1.03,1.03,0,0,1-.093,1.689l-13.619,13.317a1.006,1.006,0,0,1-.746.281,1.136,1.136,0,0,1-.839-.281l-5.317-5.346a1.058,1.058,0,0,1,0-1.688,1.046,1.046,0,0,1,1.679,0l4.477,4.5,12.779-12.473A1.046,1.046,0,0,1,1226,594.847Z" transform="translate(-1194.468 -581.999)" fill="#feb960"/>
</svg>
