<?xml version="1.0" ?><svg id="ICON" viewBox="0 0 512 512" xmlns="http://www.w3.org/2000/svg"><defs><style>.cls-1{fill:none;stroke:#5c6bc0;stroke-linecap:round;stroke-linejoin:round;stroke-width:16px;}.cls-2{fill:#5c6bc0;}</style></defs><title/><circle class="cls-1" cx="256" cy="256" r="192"/><path class="cls-1" d="M273.11,157l-8.7-13.47a10,10,0,0,0-16.84,0l-53.6,83A10,10,0,0,0,202.4,242h23.06a10,10,0,0,1,10,10.06L235,360.6a10,10,0,0,0,10,10.06h21.88a10,10,0,0,0,10-10.06l-.44-108.54a10,10,0,0,1,10-10.06H309.6A10,10,0,0,0,318,226.54L305.59,207.3"/><circle class="cls-2" cx="288.64" cy="180.87" r="8"/></svg>